<?xml version="1.0" encoding="UTF-8" standalone="no"?>
<!-- Created with Inkscape (http://www.inkscape.org/) -->

<svg
   xmlns:dc="http://purl.org/dc/elements/1.1/"
   xmlns:cc="http://creativecommons.org/ns#"
   xmlns:rdf="http://www.w3.org/1999/02/22-rdf-syntax-ns#"
   xmlns:svg="http://www.w3.org/2000/svg"
   xmlns="http://www.w3.org/2000/svg"
   xmlns:xlink="http://www.w3.org/1999/xlink"
   xmlns:sodipodi="http://sodipodi.sourceforge.net/DTD/sodipodi-0.dtd"
   xmlns:inkscape="http://www.inkscape.org/namespaces/inkscape"
   width="400.06879"
   height="399.92328"
   id="svg2"
   version="1.1"
   inkscape:version="0.48.4 r9939"
   sodipodi:docname="iconsvg.svg"
   inkscape:export-filename="/home/carlos/dev/Hack/babel/icon.png"
   inkscape:export-xdpi="123.73"
   inkscape:export-ydpi="123.73">
  <defs
     id="defs4">
    <linearGradient
       id="linearGradient4713">
      <stop
         style="stop-color:#729fcf;stop-opacity:1;"
         offset="0"
         id="stop4715" />
      <stop
         style="stop-color:#3d75b2;stop-opacity:1;"
         offset="1"
         id="stop4717" />
    </linearGradient>
    <linearGradient
       inkscape:collect="always"
       id="linearGradient4705">
      <stop
         style="stop-color:#eeeeec;stop-opacity:1;"
         offset="0"
         id="stop4707" />
      <stop
         style="stop-color:#eeeeec;stop-opacity:0;"
         offset="1"
         id="stop4709" />
    </linearGradient>
    <linearGradient
       id="linearGradient4653">
      <stop
         style="stop-color:#ffffff;stop-opacity:1"
         offset="0"
         id="stop4655" />
      <stop
         style="stop-color:#ffffff;stop-opacity:0;"
         offset="1"
         id="stop4657" />
    </linearGradient>
    <linearGradient
       inkscape:collect="always"
       id="linearGradient4563">
      <stop
         style="stop-color:#b4d4f6;stop-opacity:1;"
         offset="0"
         id="stop4565" />
      <stop
         style="stop-color:#b4d4f6;stop-opacity:0;"
         offset="1"
         id="stop4567" />
    </linearGradient>
    <linearGradient
       id="linearGradient4555">
      <stop
         style="stop-color:#183867;stop-opacity:1;"
         offset="0"
         id="stop4557" />
      <stop
         style="stop-color:#204a87;stop-opacity:0;"
         offset="1"
         id="stop4559" />
    </linearGradient>
    <linearGradient
       id="linearGradient4482">
      <stop
         style="stop-color:#ffffff;stop-opacity:1"
         offset="0"
         id="stop4484" />
      <stop
         style="stop-color:#ffffff;stop-opacity:0;"
         offset="1"
         id="stop4486" />
    </linearGradient>
    <linearGradient
       id="linearGradient4461">
      <stop
         style="stop-color:#ce5c00;stop-opacity:1;"
         offset="0"
         id="stop4463" />
      <stop
         style="stop-color:#ce5c00;stop-opacity:0;"
         offset="1"
         id="stop4465" />
    </linearGradient>
    <linearGradient
       inkscape:collect="always"
       id="linearGradient4286">
      <stop
         style="stop-color:#f57900;stop-opacity:1;"
         offset="0"
         id="stop4288" />
      <stop
         style="stop-color:#f57900;stop-opacity:0;"
         offset="1"
         id="stop4290" />
    </linearGradient>
    <linearGradient
       id="linearGradient4270">
      <stop
         style="stop-color:#ffeabd;stop-opacity:1;"
         offset="0"
         id="stop4272" />
      <stop
         style="stop-color:#ffffff;stop-opacity:0;"
         offset="1"
         id="stop4274" />
    </linearGradient>
    <linearGradient
       inkscape:collect="always"
       id="linearGradient4221">
      <stop
         style="stop-color:#000000;stop-opacity:1;"
         offset="0"
         id="stop4223" />
      <stop
         style="stop-color:#000000;stop-opacity:0;"
         offset="1"
         id="stop4225" />
    </linearGradient>
    <linearGradient
       inkscape:collect="always"
       id="linearGradient4207">
      <stop
         style="stop-color:#ce5c00;stop-opacity:1;"
         offset="0"
         id="stop4209" />
      <stop
         style="stop-color:#ce5c00;stop-opacity:0;"
         offset="1"
         id="stop4211" />
    </linearGradient>
    <radialGradient
       inkscape:collect="always"
       xlink:href="#linearGradient4461"
       id="radialGradient4467"
       cx="263.5"
       cy="1040.3173"
       fx="263.5"
       fy="1040.3173"
       r="275.78125"
       gradientTransform="matrix(0.19543371,0.01415749,-0.00754744,0.07318297,117.91811,294.73306)"
       gradientUnits="userSpaceOnUse" />
    <clipPath
       clipPathUnits="userSpaceOnUse"
       id="clipPath4476">
      <path
         style="fill:#f8c201;fill-opacity:1"
         d="m 87.450893,237.33929 c -9.58924,-0.0172 -17.85125,0.38256 -18.625,1.15625 -1.2085,1.20851 -1.6254,1.03601 10.6875,3.75 6.705838,1.47809 12.696902,3.18032 18.0625,5.125 l 36.562497,6.34375 -25.9375,-1.75 c 3.95371,2.04345 7.44691,4.29775 10.53125,6.78125 l 25.1875,3.3125 -21.84375,-0.375 c 0.19684,0.18863 0.40085,0.37148 0.59375,0.5625 2.57302,2.54805 4.24332,4.43055 5.4375,6.28125 l 27.09375,-0.21875 -25.4375,3.5 c 0.23443,0.60458 0.38148,1.25515 0.65625,1.90625 3.25094,7.70346 -2.72613,13.93275 -16.88839,24.51339 -14.480159,10.81815 -17.41275,22.23463 -18.96875,22.24107 -15.405264,-6.2e-4 -34.775444,-62.71401 -47.6875,-55.8125 0.85209,4.37812 1.646684,10.72084 2.09375,18.1875 l 19.71875,21.9375 -19.46875,-16.75 c 0.123836,3.76096 0.149002,7.71752 0.03125,11.8125 L 68.4375,312.25 49.125,303.03125 c -0.194038,4.19628 -0.525921,8.47349 -1.0625,12.78125 l 21.53125,6.875 -21.90625,-4 c -0.463428,3.20341 -1.050741,6.40867 -1.75,9.5625 l 22,2.15625 -22.65625,0.6875 c -0.714866,2.87618 -1.551531,5.68419 -2.5,8.4375 l 23.0625,-2.9375 -24.3125,6.34375 c -2.264206,5.7702 -5.117502,11.15305 -8.6875,15.8125 15.038651,5.137 32.441159,-19.31889 49.059477,-14.43888 1.426578,0.29991 2.424754,1.75254 2.457551,2.40619 1.466009,16.90687 21.943852,32.69108 39.194482,38.13886 17.25063,5.44778 75.94414,15.18636 112.91349,-19.98117 7.49466,-7.27888 10.4842,-14.41015 16.625,-16.25 3.7115,-1.11198 12.37533,23.49932 14.26348,21.02871 2.17071,-2.84041 -2.32863,-13.95314 -1.85723,-23.87246 0.55828,-11.74761 10.31202,-22.49663 8.75682,-23.81171 -5.31078,-4.49079 -15.15412,14.93939 -18.75682,12.99921 -6.6682,-3.5911 -8.98339,-16.94404 -17.75,-29.375 -8.86657,-12.5727 -27.28391,-28.0223 -57.29911,-45.22321 -18.3089,-10.4924 -43.8161,-18.87061 -66.4375,-21.8125 -6.04351,-0.78595 -16.973257,-1.20152 -26.562497,-1.21875 z"
         id="path4478"
         inkscape:connector-curvature="0"
         sodipodi:nodetypes="scsccccccccccsscccccccccccccccccccczcscsssssss" />
    </clipPath>
    <radialGradient
       inkscape:collect="always"
       xlink:href="#linearGradient4461"
       id="radialGradient4498"
       gradientUnits="userSpaceOnUse"
       gradientTransform="matrix(0.12227531,-0.05812695,0.02505107,0.05649704,92.478443,251.72447)"
       cx="310.46823"
       cy="1152.1716"
       fx="310.46823"
       fy="1152.1716"
       r="275.78125" />
    <clipPath
       clipPathUnits="userSpaceOnUse"
       id="clipPath4505">
      <path
         style="fill:#f8c201;fill-opacity:1"
         d="m 87.450893,237.33929 c -9.58924,-0.0172 -17.85125,0.38256 -18.625,1.15625 -1.2085,1.20851 -1.6254,1.03601 10.6875,3.75 6.705838,1.47809 12.696902,3.18032 18.0625,5.125 l 36.562497,6.34375 -25.9375,-1.75 c 3.95371,2.04345 7.44691,4.29775 10.53125,6.78125 l 25.1875,3.3125 -21.84375,-0.375 c 0.19684,0.18863 0.40085,0.37148 0.59375,0.5625 2.57302,2.54805 4.24332,4.43055 5.4375,6.28125 l 27.09375,-0.21875 -25.4375,3.5 c 0.23443,0.60458 0.38148,1.25515 0.65625,1.90625 3.25094,7.70346 -2.72613,13.93275 -16.88839,24.51339 -14.480159,10.81815 -17.41275,22.23463 -18.96875,22.24107 -15.405264,-6.2e-4 -34.775444,-62.71401 -47.6875,-55.8125 0.85209,4.37812 1.646684,10.72084 2.09375,18.1875 l 19.71875,21.9375 -19.46875,-16.75 c 0.123836,3.76096 0.149002,7.71752 0.03125,11.8125 L 68.4375,312.25 49.125,303.03125 c -0.194038,4.19628 -0.525921,8.47349 -1.0625,12.78125 l 21.53125,6.875 -21.90625,-4 c -0.463428,3.20341 -1.050741,6.40867 -1.75,9.5625 l 22,2.15625 -22.65625,0.6875 c -0.714866,2.87618 -1.551531,5.68419 -2.5,8.4375 l 23.0625,-2.9375 -24.3125,6.34375 c -2.264206,5.7702 -5.117502,11.15305 -8.6875,15.8125 15.038651,5.137 32.441159,-19.31889 49.059477,-14.43888 1.426578,0.29991 2.424754,1.75254 2.457551,2.40619 1.466009,16.90687 21.943852,32.69108 39.194482,38.13886 17.25063,5.44778 75.94414,15.18636 112.91349,-19.98117 7.49466,-7.27888 10.4842,-14.41015 16.625,-16.25 3.7115,-1.11198 12.37533,23.49932 14.26348,21.02871 2.17071,-2.84041 -2.32863,-13.95314 -1.85723,-23.87246 0.55828,-11.74761 10.31202,-22.49663 8.75682,-23.81171 -5.31078,-4.49079 -15.15412,14.93939 -18.75682,12.99921 -6.6682,-3.5911 -8.98339,-16.94404 -17.75,-29.375 -8.86657,-12.5727 -27.28391,-28.0223 -57.29911,-45.22321 -18.3089,-10.4924 -43.8161,-18.87061 -66.4375,-21.8125 -6.04351,-0.78595 -16.973257,-1.20152 -26.562497,-1.21875 z"
         id="path4507"
         inkscape:connector-curvature="0"
         sodipodi:nodetypes="scsccccccccccsscccccccccccccccccccczcscsssssss" />
    </clipPath>
    <linearGradient
       inkscape:collect="always"
       xlink:href="#linearGradient4207"
       id="linearGradient4539"
       gradientUnits="userSpaceOnUse"
       x1="230.83363"
       y1="570.96307"
       x2="175.93472"
       y2="320.95035" />
    <radialGradient
       inkscape:collect="always"
       xlink:href="#linearGradient4221"
       id="radialGradient4541"
       gradientUnits="userSpaceOnUse"
       gradientTransform="matrix(0.29098062,0.61784006,-0.91883551,0.43273876,454.82332,61.243769)"
       cx="194.37485"
       cy="324.11563"
       fx="194.37485"
       fy="324.11563"
       r="9.640625" />
    <radialGradient
       inkscape:collect="always"
       xlink:href="#linearGradient4461"
       id="radialGradient4543"
       gradientUnits="userSpaceOnUse"
       gradientTransform="matrix(0.19543371,0.01415749,-0.00754744,0.07318297,117.91811,294.73306)"
       cx="263.5"
       cy="1040.3173"
       fx="263.5"
       fy="1040.3173"
       r="275.78125" />
    <linearGradient
       inkscape:collect="always"
       xlink:href="#linearGradient4270"
       id="linearGradient4545"
       gradientUnits="userSpaceOnUse"
       gradientTransform="matrix(1.3300529,0,0,1.3300529,-58.818753,-107.87383)"
       x1="143.61911"
       y1="369.7103"
       x2="170.40179"
       y2="327.53644" />
    <linearGradient
       inkscape:collect="always"
       xlink:href="#linearGradient4286"
       id="linearGradient4547"
       gradientUnits="userSpaceOnUse"
       gradientTransform="matrix(1.3300529,0,0,1.3300529,-58.818753,-107.87383)"
       x1="126.32536"
       y1="378.67535"
       x2="164.46207"
       y2="341.29977" />
    <linearGradient
       inkscape:collect="always"
       xlink:href="#linearGradient4482"
       id="linearGradient4549"
       gradientUnits="userSpaceOnUse"
       x1="77.843742"
       y1="212.41705"
       x2="130.85315"
       y2="295.2742" />
    <radialGradient
       inkscape:collect="always"
       xlink:href="#linearGradient4461"
       id="radialGradient4551"
       gradientUnits="userSpaceOnUse"
       gradientTransform="matrix(0.12227531,-0.05812695,0.02505107,0.05649704,92.478443,251.72447)"
       cx="310.46823"
       cy="1152.1716"
       fx="310.46823"
       fy="1152.1716"
       r="275.78125" />
    <radialGradient
       inkscape:collect="always"
       xlink:href="#linearGradient4563"
       id="radialGradient4571"
       cx="-208.29024"
       cy="393.11795"
       fx="-208.29024"
       fy="393.11795"
       r="48.82143"
       gradientUnits="userSpaceOnUse"
       gradientTransform="matrix(0.96704567,-0.62833012,0.63645786,0.9795548,-253.59607,-125.74245)" />
    <radialGradient
       inkscape:collect="always"
       xlink:href="#linearGradient4555"
       id="radialGradient4573"
       cx="-212.14285"
       cy="369.50504"
       fx="-212.14285"
       fy="369.50504"
       r="48.82143"
       gradientUnits="userSpaceOnUse"
       gradientTransform="matrix(0.83126646,0.99388555,-0.76238482,0.6376438,245.90942,344.73817)" />
    <radialGradient
       inkscape:collect="always"
       xlink:href="#linearGradient4563"
       id="radialGradient4577"
       gradientUnits="userSpaceOnUse"
       gradientTransform="matrix(0.96704567,-0.62833012,0.63645786,0.9795548,-253.59607,-125.74245)"
       cx="-208.29024"
       cy="393.11795"
       fx="-208.29024"
       fy="393.11795"
       r="48.82143" />
    <radialGradient
       inkscape:collect="always"
       xlink:href="#linearGradient4555"
       id="radialGradient4579"
       gradientUnits="userSpaceOnUse"
       gradientTransform="matrix(0.83126646,0.99388555,-0.76238482,0.6376438,245.90942,344.73817)"
       cx="-212.14285"
       cy="369.50504"
       fx="-212.14285"
       fy="369.50504"
       r="48.82143" />
    <radialGradient
       inkscape:collect="always"
       xlink:href="#linearGradient4563"
       id="radialGradient4583"
       gradientUnits="userSpaceOnUse"
       gradientTransform="matrix(0.96704567,-0.62833012,0.63645786,0.9795548,-253.59607,-125.74245)"
       cx="-208.29024"
       cy="393.11795"
       fx="-208.29024"
       fy="393.11795"
       r="48.82143" />
    <radialGradient
       inkscape:collect="always"
       xlink:href="#linearGradient4555"
       id="radialGradient4585"
       gradientUnits="userSpaceOnUse"
       gradientTransform="matrix(0.83126646,0.99388555,-0.76238482,0.6376438,245.90942,344.73817)"
       cx="-212.14285"
       cy="369.50504"
       fx="-212.14285"
       fy="369.50504"
       r="48.82143" />
    <radialGradient
       inkscape:collect="always"
       xlink:href="#linearGradient4563"
       id="radialGradient4589"
       gradientUnits="userSpaceOnUse"
       gradientTransform="matrix(0.96704567,-0.62833012,0.63645786,0.9795548,-253.59607,-125.74245)"
       cx="-208.29024"
       cy="393.11795"
       fx="-208.29024"
       fy="393.11795"
       r="48.82143" />
    <radialGradient
       inkscape:collect="always"
       xlink:href="#linearGradient4555"
       id="radialGradient4591"
       gradientUnits="userSpaceOnUse"
       gradientTransform="matrix(0.83126646,0.99388555,-0.76238482,0.6376438,245.90942,344.73817)"
       cx="-212.14285"
       cy="369.50504"
       fx="-212.14285"
       fy="369.50504"
       r="48.82143" />
    <radialGradient
       inkscape:collect="always"
       xlink:href="#linearGradient4563"
       id="radialGradient4595"
       gradientUnits="userSpaceOnUse"
       gradientTransform="matrix(0.96704567,-0.62833012,0.63645786,0.9795548,-253.59607,-125.74245)"
       cx="-208.29024"
       cy="393.11795"
       fx="-208.29024"
       fy="393.11795"
       r="48.82143" />
    <radialGradient
       inkscape:collect="always"
       xlink:href="#linearGradient4555"
       id="radialGradient4597"
       gradientUnits="userSpaceOnUse"
       gradientTransform="matrix(0.83126646,0.99388555,-0.76238482,0.6376438,245.90942,344.73817)"
       cx="-212.14285"
       cy="369.50504"
       fx="-212.14285"
       fy="369.50504"
       r="48.82143" />
    <clipPath
       clipPathUnits="userSpaceOnUse"
       id="clipPath4701">
      <path
         inkscape:connector-curvature="0"
         id="path4703"
         d="M 117.21649,497.25548 C 59.982688,487.43333 11.972689,455.86767 -19.527211,407.34915 c -24.303198,-37.43365 -35.9218,-87.13371 -30.2737,-129.5 3.682202,-27.62078 8.736501,-44.90695 19.467502,-66.58053 20.741595,-41.89229 55.285301,-75.25064 97.553897,-94.20634 18.614799,-8.34795 36.005602,-13.05468 59.996002,-16.23758 35.58892,-4.721707 76.92122,2.70243 111.56182,20.03882 57.3952,28.7242 97.0983,83.06582 107.83892,147.59889 3.13386,18.82931 2.97079,45.46888 -0.39581,64.66171 -14.96581,85.3191 -80.07491,149.67036 -166.11601,164.18233 -16.3127,2.75136 -46.7032,2.72673 -62.88892,-0.051 z"
         style="fill:#729fcf" />
    </clipPath>
    <linearGradient
       inkscape:collect="always"
       xlink:href="#linearGradient4705"
       id="linearGradient4711"
       x1="126.64984"
       y1="116.53568"
       x2="131.00435"
       y2="237.24995"
       gradientUnits="userSpaceOnUse" />
    <linearGradient
       inkscape:collect="always"
       xlink:href="#linearGradient4713"
       id="linearGradient4719"
       x1="184.28613"
       y1="155.14169"
       x2="182.92368"
       y2="395.14169"
       gradientUnits="userSpaceOnUse" />
  </defs>
  <sodipodi:namedview
     id="base"
     pagecolor="#ffffff"
     bordercolor="#666666"
     borderopacity="1.0"
     inkscape:pageopacity="0.0"
     inkscape:pageshadow="2"
     inkscape:zoom="0.98994949"
     inkscape:cx="72.739882"
     inkscape:cy="164.36401"
     inkscape:document-units="px"
     inkscape:current-layer="layer1"
     showgrid="false"
     inkscape:window-width="1845"
     inkscape:window-height="1064"
     inkscape:window-x="74"
     inkscape:window-y="10"
     inkscape:window-maximized="1"
     fit-margin-top="0"
     fit-margin-left="0"
     fit-margin-right="0"
     fit-margin-bottom="0" />
  <metadata
     id="metadata7">
    <rdf:RDF>
      <cc:Work
         rdf:about="">
        <dc:format>image/svg+xml</dc:format>
        <dc:type
           rdf:resource="http://purl.org/dc/dcmitype/StillImage" />
        <dc:title></dc:title>
      </cc:Work>
    </rdf:RDF>
  </metadata>
  <g
     inkscape:label="Layer 1"
     inkscape:groupmode="layer"
     id="layer1"
     transform="translate(74.77873,-136.57402)">
    <path
       inkscape:connector-curvature="0"
       id="path3057"
       d="m 93.64506,534.39834 c -57.2338,-9.82215 -105.2438,-41.38781 -136.7437,-89.90633 -24.3032,-37.43365 -35.9218,-87.13371 -30.2737,-129.5 3.6822,-27.62078 8.7365,-44.90695 19.4675,-66.58053 20.7416,-41.89229 55.2853,-75.25064 97.5539,-94.20634 18.6148,-8.34795 36.0056,-13.05468 59.996,-16.23758 35.58892,-4.72171 76.92122,2.70243 111.56182,20.03882 57.3952,28.7242 97.0983,83.06582 107.83892,147.59889 3.13386,18.82931 2.97079,45.46888 -0.39581,64.66171 -14.96581,85.3191 -80.07491,149.67036 -166.11601,164.18233 -16.3127,2.75136 -46.7032,2.72673 -62.88892,-0.051 z"
       style="fill:url(#linearGradient4711);fill-opacity:1" />
    <path
       style="fill:url(#linearGradient4719);fill-opacity:1"
       d="M 176.71875 28.9375 C 165.03867 44.23239 146.69846 53.63208 126.59375 52.46875 C 115.99055 51.85521 106.2011 48.38023 97.875 42.8125 C 88.628182 56.567535 71.54322 65.693973 52.09375 65.96875 C 39.737418 79.639543 29.188245 95.053297 20.875 111.84375 C 10.144 133.51733 5.08845 150.78547 1.40625 178.40625 C -4.24185 220.77254 7.3843 270.4726 31.6875 307.90625 C 63.1874 356.42477 111.2037 387.99035 168.4375 397.8125 C 184.62322 400.59023 214.9998 400.62636 231.3125 397.875 C 317.3536 383.36303 382.47169 319.0066 397.4375 233.6875 C 400.8041 214.49467 400.94636 187.86056 397.8125 169.03125 C 389.988 122.01916 366.80208 80.418298 332.59375 50.1875 C 324.25517 48.335056 316.99945 44.284421 311.34375 38.71875 C 301.9233 48.47064 289.60598 54.10572 276.4375 53.34375 C 264.70873 52.66508 254.21842 47.02094 246.25 38.1875 C 237.18476 44.7027 225.71244 48.30402 213.4375 47.59375 C 198.36225 46.72144 185.22983 39.54573 176.71875 28.9375 z "
       transform="translate(-74.77873,136.57402)"
       id="path4696" />
    <g
       id="g4528"
       transform="matrix(1.0118269,0,0,1.0118269,-60.195522,62.820656)">
      <path
         sodipodi:nodetypes="scsccccccccccsscccccccccccccccccccczcscsssssss"
         inkscape:connector-curvature="0"
         id="path3072"
         d="m 87.450893,237.33929 c -9.58924,-0.0172 -17.85125,0.38256 -18.625,1.15625 -1.2085,1.20851 -1.6254,1.03601 10.6875,3.75 6.705838,1.47809 12.696902,3.18032 18.0625,5.125 l 36.562497,6.34375 -25.9375,-1.75 c 3.95371,2.04345 7.44691,4.29775 10.53125,6.78125 l 25.1875,3.3125 -21.84375,-0.375 c 0.19684,0.18863 0.40085,0.37148 0.59375,0.5625 2.57302,2.54805 4.24332,4.43055 5.4375,6.28125 l 27.09375,-0.21875 -25.4375,3.5 c 0.23443,0.60458 0.38148,1.25515 0.65625,1.90625 3.25094,7.70346 -2.72613,13.93275 -16.88839,24.51339 -14.480159,10.81815 -17.41275,22.23463 -18.96875,22.24107 -15.405264,-6.2e-4 -34.775444,-62.71401 -47.6875,-55.8125 0.85209,4.37812 1.646684,10.72084 2.09375,18.1875 l 19.71875,21.9375 -19.46875,-16.75 c 0.123836,3.76096 0.149002,7.71752 0.03125,11.8125 L 68.4375,312.25 49.125,303.03125 c -0.194038,4.19628 -0.525921,8.47349 -1.0625,12.78125 l 21.53125,6.875 -21.90625,-4 c -0.463428,3.20341 -1.050741,6.40867 -1.75,9.5625 l 22,2.15625 -22.65625,0.6875 c -0.714866,2.87618 -1.551531,5.68419 -2.5,8.4375 l 23.0625,-2.9375 -24.3125,6.34375 c -2.264206,5.7702 -5.117502,11.15305 -8.6875,15.8125 15.038651,5.137 32.441159,-19.31889 49.059477,-14.43888 1.426578,0.29991 2.424754,1.75254 2.457551,2.40619 1.466009,16.90687 21.943852,32.69108 39.194482,38.13886 17.25063,5.44778 75.94414,15.18636 112.91349,-19.98117 7.49466,-7.27888 10.4842,-14.41015 16.625,-16.25 3.7115,-1.11198 12.37533,23.49932 14.26348,21.02871 2.17071,-2.84041 -2.32863,-13.95314 -1.85723,-23.87246 0.55828,-11.74761 10.31202,-22.49663 8.75682,-23.81171 -5.31078,-4.49079 -15.15412,14.93939 -18.75682,12.99921 -6.6682,-3.5911 -8.98339,-16.94404 -17.75,-29.375 -8.86657,-12.5727 -27.28391,-28.0223 -57.29911,-45.22321 -18.3089,-10.4924 -43.8161,-18.87061 -66.4375,-21.8125 -6.04351,-0.78595 -16.973257,-1.20152 -26.562497,-1.21875 z"
         style="fill:#f8c201;fill-opacity:1" />
      <path
         style="fill:url(#linearGradient4539);fill-opacity:1"
         d="m 87.450893,237.33929 c -9.58924,-0.0172 -17.85125,0.38256 -18.625,1.15625 -1.2085,1.20851 -1.6254,1.03601 10.6875,3.75 6.705838,1.47809 12.696902,3.18032 18.0625,5.125 l 36.562497,6.34375 -25.9375,-1.75 c 3.95371,2.04345 7.44691,4.29775 10.53125,6.78125 l 25.1875,3.3125 -21.84375,-0.375 c 0.19684,0.18863 0.40085,0.37148 0.59375,0.5625 2.57302,2.54805 4.24332,4.43055 5.4375,6.28125 l 27.09375,-0.21875 -25.4375,3.5 c 0.23443,0.60458 0.38148,1.25515 0.65625,1.90625 3.25094,7.70346 -2.72613,13.93275 -16.88839,24.51339 -14.480159,10.81815 -17.41275,22.23463 -18.96875,22.24107 -15.405264,-6.2e-4 -34.775444,-62.71401 -47.6875,-55.8125 0.85209,4.37812 1.646684,10.72084 2.09375,18.1875 l 19.71875,21.9375 -19.46875,-16.75 c 0.123836,3.76096 0.149002,7.71752 0.03125,11.8125 L 68.4375,312.25 49.125,303.03125 c -0.194038,4.19628 -0.525921,8.47349 -1.0625,12.78125 l 21.53125,6.875 -21.90625,-4 c -0.463428,3.20341 -1.050741,6.40867 -1.75,9.5625 l 22,2.15625 -22.65625,0.6875 c -0.714866,2.87618 -1.551531,5.68419 -2.5,8.4375 l 23.0625,-2.9375 -24.3125,6.34375 c -2.264206,5.7702 -5.117502,11.15305 -8.6875,15.8125 15.757703,5.38262 34.110717,-21.72519 51.4375,-13.53125 0.334851,17.46541 21.51462,34.02897 39.27401,39.63742 17.75939,5.60846 75.94414,15.18636 112.91349,-19.98117 7.49466,-7.27888 10.4842,-14.41015 16.625,-16.25 3.7115,-1.11198 12.37533,23.49932 14.26348,21.02871 2.17071,-2.84041 -2.32863,-13.95314 -1.85723,-23.87246 0.55828,-11.74761 10.31202,-22.49663 8.75682,-23.81171 -5.31078,-4.49079 -15.15412,14.93939 -18.75682,12.99921 -6.6682,-3.5911 -8.98339,-16.94404 -17.75,-29.375 -8.86657,-12.5727 -27.28391,-28.0223 -57.29911,-45.22321 -18.3089,-10.4924 -43.8161,-18.87061 -66.4375,-21.8125 -6.04351,-0.78595 -16.973257,-1.20152 -26.562497,-1.21875 z"
         id="path4205"
         inkscape:connector-curvature="0"
         sodipodi:nodetypes="scsccccccccccssccccccccccccccccccczcscsssssss" />
      <path
         inkscape:connector-curvature="0"
         style="fill:url(#radialGradient4541);fill-opacity:1"
         d="m 212.08482,308.8125 c 5.3256,0 9.65625,4.33065 9.65625,9.65625 0,5.3256 -4.33065,9.65625 -9.65625,9.65625 -5.3256,0 -9.625,-4.33065 -9.625,-9.65625 0,-5.3256 4.2994,-9.65625 9.625,-9.65625 z"
         id="path4215" />
      <path
         id="path3055"
         d="m 211.78125,308.0625 c 5.3256,0 9.65625,4.33065 9.65625,9.65625 0,5.3256 -4.33065,9.65625 -9.65625,9.65625 -5.3256,0 -9.625,-4.33065 -9.625,-9.65625 0,-5.3256 4.2994,-9.65625 9.625,-9.65625 z"
         style="fill:#eeeeec"
         inkscape:connector-curvature="0" />
      <path
         inkscape:connector-curvature="0"
         style="fill:#191d1e;fill-opacity:1"
         d="m 214.86161,315.51786 c 2.86346,0 5.19196,2.3285 5.19196,5.19197 0,2.86346 -2.3285,5.19196 -5.19196,5.19196 -2.86347,0 -5.17517,-2.3285 -5.17517,-5.19196 0,-2.86347 2.3117,-5.19197 5.17517,-5.19197 z"
         id="path3842" />
      <path
         clip-path="url(#clipPath4476)"
         mask="none"
         inkscape:connector-curvature="0"
         id="rect4367"
         d="m 118.28268,348.77109 -4.50529,3.17509 3.78842,3.77594 4.50531,-3.17515 -3.78844,-3.77588 z m 3.78844,3.77588 3.78843,3.77595 4.49917,-3.17555 -3.78232,-3.77548 -4.50528,3.17508 z m 8.2876,0.6004 3.78844,3.7759 4.50528,-3.17509 -3.78843,-3.77589 -4.50529,3.17508 z m 8.29372,0.60081 3.78843,3.77589 4.50529,-3.17509 -3.78841,-3.7759 -4.50531,3.1751 z m 8.29372,0.6008 3.78233,3.77549 4.50527,-3.17515 -3.78841,-3.77589 -4.49919,3.17555 z m 8.2876,0.60034 3.78844,3.77595 4.50529,-3.17515 -3.78842,-3.77589 -4.50531,3.17509 z m 8.29373,0.6008 3.78843,3.77595 4.5053,-3.17509 -3.78843,-3.77595 -4.5053,3.17509 z m 8.29373,0.60086 3.78841,3.77589 4.4992,-3.17554 -3.78232,-3.77545 -4.50529,3.1751 z m 8.28761,0.60035 3.78841,3.77594 4.5053,-3.17515 -3.78842,-3.77589 -4.50529,3.1751 z m 8.29371,0.60079 3.78842,3.77594 4.5053,-3.17509 -3.78843,-3.77594 -4.50529,3.17509 z m 8.29372,0.60085 3.78232,3.77545 4.50529,-3.1751 -3.78843,-3.77595 -4.49918,3.1756 z m 8.28761,0.60035 3.78841,3.77589 4.5053,-3.17508 -3.78842,-3.7759 -4.50529,3.17509 z m -91.33581,-5.35309 -4.5053,3.1751 3.78844,3.77594 4.5053,-3.17514 -3.78844,-3.7759 z m 3.78844,3.7759 3.78841,3.77593 4.5053,-3.17508 -3.78843,-3.77595 -4.50528,3.1751 z m 8.29371,0.60085 3.78842,3.77588 4.49919,-3.17554 -3.78233,-3.77548 -4.50528,3.17514 z m 8.28761,0.60034 3.78843,3.7759 4.50529,-3.17509 -3.78844,-3.7759 -4.50528,3.17509 z m 8.29372,0.60081 3.78841,3.77588 4.50531,-3.17504 -3.78843,-3.77594 -4.50529,3.1751 z m 8.29372,0.60084 3.78232,3.77544 4.50529,-3.17509 -3.78842,-3.77594 -4.49919,3.17559 z m 8.28761,0.60035 3.78843,3.77589 4.50528,-3.17509 -3.78841,-3.77589 -4.5053,3.17509 z m 8.29371,0.6008 3.78844,3.77589 4.50529,-3.17509 -3.78842,-3.77588 -4.50531,3.17508 z m 8.29373,0.6008 3.78843,3.77589 4.49917,-3.17553 -3.78231,-3.77545 -4.50529,3.17509 z m 8.2876,0.60036 3.78843,3.77593 4.5053,-3.17514 -3.78843,-3.77589 -4.5053,3.1751 z m 8.29373,0.60079 3.78842,3.77594 4.5053,-3.17514 -3.78844,-3.77589 -4.50528,3.17509 z m 8.29372,0.6008 3.78231,3.77549 4.5053,-3.17509 -3.78844,-3.77589 -4.49917,3.17549 z m 8.28761,0.6004 3.78841,3.77588 4.5053,-3.17508 -3.78843,-3.77589 -4.50528,3.17509 z m -91.34953,-5.22 -4.5053,3.17508 3.78844,3.77595 4.50528,-3.17509 -3.78842,-3.77594 z m 3.78842,3.77594 3.78843,3.7759 4.49919,-3.17555 -3.78233,-3.7755 -4.50529,3.17515 z m 8.28762,0.60035 3.78842,3.77589 4.50528,-3.17509 -3.78841,-3.7759 -4.50529,3.1751 z m 8.2937,0.6008 3.78843,3.77589 4.50531,-3.1751 -3.78844,-3.77589 -4.5053,3.1751 z m 8.29374,0.60079 3.7823,3.7755 4.50531,-3.17514 -3.78843,-3.77589 -4.49918,3.17553 z m 8.28761,0.60036 3.78843,3.77594 4.50528,-3.17509 -3.78842,-3.77589 -4.50529,3.17504 z m 8.29371,0.60085 3.78843,3.77589 4.50529,-3.17509 -3.78843,-3.7759 -4.50529,3.1751 z m 8.29372,0.6008 3.78844,3.77588 4.49917,-3.17554 -3.78232,-3.77544 -4.50529,3.1751 z m 8.28761,0.60034 3.78843,3.77594 4.50528,-3.17513 -3.78841,-3.77589 -4.5053,3.17508 z m 8.29371,0.60081 3.78843,3.77593 4.50529,-3.17508 -3.78843,-3.77595 -4.50529,3.1751 z m 8.29372,0.60085 3.78232,3.77543 4.50529,-3.17508 -3.78844,-3.77595 -4.49917,3.1756 z m 8.28761,0.60035 3.78843,3.77588 4.50529,-3.17509 -3.78843,-3.77589 -4.50529,3.1751 z m -91.33581,-5.35309 -4.50528,3.17508 3.78842,3.77594 4.5053,-3.17514 -3.78844,-3.77588 z m 3.78844,3.77588 3.78843,3.77594 4.50528,-3.17508 -3.78841,-3.77594 -4.5053,3.17508 z m 8.29371,0.60086 3.78843,3.77589 4.4992,-3.17554 -3.78232,-3.77544 -4.50531,3.17509 z m 8.28763,0.60035 3.78842,3.77593 4.50528,-3.17513 -3.78842,-3.7759 -4.50528,3.1751 z m 8.2937,0.6008 3.78844,3.77588 4.50529,-3.17504 -3.78843,-3.77593 -4.5053,3.17509 z m 8.29373,0.60084 3.78231,3.77544 4.5053,-3.17509 -3.78844,-3.77594 -4.49917,3.17559 z m 8.28761,0.60035 3.78842,3.7759 4.5053,-3.1751 -3.78844,-3.77589 -4.50528,3.17509 z m 8.29372,0.6008 3.78841,3.77589 4.50531,-3.17509 -3.78843,-3.77589 -4.50529,3.17509 z m 8.29372,0.6008 3.78843,3.77589 4.49917,-3.17554 -3.78231,-3.77544 -4.50529,3.17509 z m 8.2876,0.60035 3.78843,3.77594 4.50529,-3.17514 -3.78843,-3.77584 -4.50529,3.17504 z m 8.29372,0.6008 3.78843,3.77595 4.50529,-3.17515 -3.78841,-3.77584 -4.50531,3.17504 z m 8.29372,0.6008 3.78232,3.77549 4.50528,-3.17509 -3.78841,-3.77589 -4.49919,3.17549 z m 8.2876,0.6004 3.78844,3.77594 4.50528,-3.17515 -3.78841,-3.77588 -4.50531,3.17509 z m -91.34002,-5.31209 -4.5053,3.17504 3.78844,3.77594 4.5053,-3.1751 -3.78844,-3.77588 z m 3.78844,3.77588 3.78841,3.7759 4.4992,-3.17555 -3.78233,-3.77544 -4.50528,3.17509 z m 8.28761,0.60035 3.78843,3.77594 4.50528,-3.17514 -3.78843,-3.77588 -4.50528,3.17508 z m 8.29371,0.6008 3.78843,3.77594 4.5053,-3.17509 -3.78844,-3.77593 -4.50529,3.17508 z m 8.29373,0.60085 3.78231,3.77544 4.50529,-3.17509 -3.78843,-3.77594 -4.49917,3.17559 z m 8.2876,0.60035 3.78842,3.77589 4.5053,-3.17509 -3.78842,-3.77594 -4.5053,3.17514 z m 8.29372,0.6008 3.78843,3.77589 4.50528,-3.1751 -3.78841,-3.77588 -4.5053,3.17509 z m 8.29371,0.60079 3.78844,3.77595 4.49917,-3.17554 -3.7823,-3.77549 -4.50531,3.17508 z m 8.28761,0.60041 3.78843,3.7759 4.50528,-3.17515 -3.78841,-3.77589 -4.5053,3.17514 z m 8.29371,0.60075 3.78844,3.77594 4.5053,-3.17514 -3.78843,-3.77585 -4.50531,3.17505 z m 8.29374,0.6008 3.78231,3.77549 4.50529,-3.1751 -3.78842,-3.77589 -4.49918,3.1755 z m 8.2876,0.60039 3.78842,3.77595 4.50531,-3.17514 -3.78844,-3.77589 -4.50529,3.17508 z m -91.3358,-5.35308 -4.50528,3.17513 3.78841,3.7759 4.50529,-3.17509 -3.78842,-3.77594 z m 3.78842,3.77594 3.78843,3.7759 4.5053,-3.1751 -3.78843,-3.77589 -4.5053,3.17509 z m 8.29373,0.6008 3.78842,3.77589 4.49919,-3.17554 -3.78232,-3.77545 -4.50529,3.1751 z m 8.28761,0.60035 3.78844,3.77594 4.50527,-3.17514 -3.78842,-3.77589 -4.50529,3.17509 z m 8.29371,0.6008 3.78844,3.77594 4.50529,-3.17509 -3.78843,-3.77589 -4.5053,3.17504 z m 8.29373,0.60085 3.78232,3.77545 4.50529,-3.1751 -3.78843,-3.7759 -4.49918,3.17555 z m 8.28761,0.60035 3.78843,3.77594 4.50529,-3.17514 -3.78844,-3.7759 -4.50528,3.1751 z m 8.29372,0.6008 3.78842,3.77593 4.50529,-3.17513 -3.78841,-3.77589 -4.5053,3.17509 z m 8.29371,0.6008 3.78843,3.77593 4.49918,-3.17553 -3.78231,-3.77549 -4.5053,3.17509 z m 8.28761,0.6004 3.78843,3.77589 4.50528,-3.17509 -3.78841,-3.77595 -4.5053,3.17515 z m 8.29371,0.6008 3.78843,3.77588 4.50529,-3.17508 -3.78841,-3.7759 -4.50531,3.1751 z m 8.29372,0.6008 3.78233,3.77548 4.50529,-3.17514 -3.78842,-3.77589 -4.4992,3.17555 z m 8.28762,0.60034 3.78843,3.77594 4.50529,-3.17513 -3.78843,-3.77589 -4.50529,3.17508 z m -91.34952,-5.21995 -4.5053,3.17509 3.78842,3.77589 4.5053,-3.17503 -3.78842,-3.77595 z m 3.78842,3.77595 3.78843,3.77583 4.49917,-3.17548 -3.7823,-3.7755 -4.5053,3.17515 z m 8.2876,0.60035 3.78844,3.77589 4.50528,-3.1751 -3.78841,-3.77594 -4.50531,3.17515 z m 8.29372,0.60079 3.78844,3.7759 4.50528,-3.1751 -3.78842,-3.77594 -4.5053,3.17514 z m 8.29372,0.6008 3.78233,3.77544 4.50529,-3.17509 -3.78843,-3.77594 -4.49919,3.17559 z m 8.28762,0.60035 3.78842,3.77594 4.5053,-3.17514 -3.78844,-3.77589 -4.50528,3.17509 z m 8.29372,0.6008 3.78842,3.77595 4.50529,-3.17515 -3.78842,-3.77589 -4.50529,3.17509 z m 8.29371,0.6008 3.78842,3.77594 4.4992,-3.17554 -3.78233,-3.7755 -4.50529,3.1751 z m 8.28762,0.6004 3.78842,3.77589 4.50529,-3.17509 -3.78843,-3.77595 -4.50528,3.17515 z m 8.29371,0.6008 3.78843,3.77589 4.50529,-3.17509 -3.78843,-3.77589 -4.50529,3.17509 z m 8.29372,0.6008 3.78232,3.77544 4.50529,-3.17509 -3.78842,-3.77589 -4.49919,3.17554 z m 8.28761,0.60035 3.78843,3.77594 4.50529,-3.17509 -3.78842,-3.77595 -4.5053,3.1751 z m -91.33581,-5.3531 -4.50528,3.17515 3.78843,3.7759 4.50529,-3.1751 -3.78844,-3.77595 z m 3.78844,3.77595 3.78842,3.77589 4.50529,-3.17508 -3.78843,-3.7759 -4.50528,3.17509 z m 8.29371,0.60081 3.78843,3.77593 4.49918,-3.17554 -3.78232,-3.77549 -4.50529,3.1751 z m 8.28761,0.60039 3.78843,3.77589 4.50529,-3.17509 -3.78842,-3.77595 -4.5053,3.17515 z m 8.29372,0.6008 3.78844,3.77589 4.50528,-3.17509 -3.78842,-3.7759 -4.5053,3.1751 z m 8.29372,0.6008 3.78232,3.77544 4.5053,-3.17504 -3.78842,-3.77595 -4.4992,3.17555 z m 8.28762,0.6004 3.78842,3.77588 4.50529,-3.17513 -3.78842,-3.77589 -4.50529,3.17514 z m 8.29371,0.60075 3.78843,3.77594 4.5053,-3.17514 -3.78844,-3.77589 -4.50529,3.17509 z m 8.29373,0.6008 3.78841,3.77594 4.4992,-3.17554 -3.78233,-3.7755 -4.50528,3.1751 z m 8.28761,0.6004 3.78841,3.77593 4.5053,-3.17513 -3.78843,-3.7759 -4.50528,3.1751 z m 8.29371,0.6008 3.78841,3.77593 4.50531,-3.17514 -3.78844,-3.77588 -4.50528,3.17509 z m 8.29372,0.60079 3.78232,3.77549 4.50529,-3.17509 -3.78844,-3.77594 -4.49917,3.17554 z m 8.28761,0.6004 3.78843,3.7759 4.50528,-3.1751 -3.78843,-3.77594 -4.50528,3.17514 z"
         style="opacity:0.26851849;fill:url(#radialGradient4543);fill-opacity:1;stroke:none" />
      <path
         inkscape:connector-curvature="0"
         id="path4254"
         d="m 162.4688,338.56675 c -4.24931,-0.34136 -13.46953,4.9945 -21.19772,11.84578 l 11.72109,-0.0831 -14.46432,2.57698 c -1.74784,1.72336 -3.34918,3.53275 -4.73832,5.32021 l 10.05853,-1.82882 -11.84579,4.32267 c -1.74218,2.67379 -2.8935,5.27386 -3.11731,7.6478 l 7.14904,-0.70659 -7.1906,1.99508 c 0.22548,4.29195 3.90667,7.57874 13.09271,8.56222 34.80743,3.72661 31.50964,-38.77039 20.53269,-39.6522 z"
         style="fill:url(#linearGradient4545);fill-opacity:1;stroke:url(#linearGradient4547);stroke-width:0.3990159;stroke-miterlimit:4;stroke-dasharray:none" />
      <path
         style="fill:url(#linearGradient4549);fill-opacity:1"
         d="m 87.450893,237.33929 c -9.58924,-0.0172 -17.85125,0.38256 -18.625,1.15625 -1.2085,1.20851 -1.6254,1.03601 10.6875,3.75 6.705838,1.47809 12.696902,3.18032 18.0625,5.125 l 36.562497,6.34375 -25.9375,-1.75 c 3.95371,2.04345 7.44691,4.29775 10.53125,6.78125 l 25.1875,3.3125 -21.84375,-0.375 c 0.19684,0.18863 0.40085,0.37148 0.59375,0.5625 2.57302,2.54805 4.24332,4.43055 5.4375,6.28125 l 27.09375,-0.21875 -25.4375,3.5 c 0.23443,0.60458 0.38148,1.25515 0.65625,1.90625 3.25094,7.70346 -2.72613,13.93275 -16.88839,24.51339 -14.480159,10.81815 -17.41275,22.23463 -18.96875,22.24107 -15.405264,-6.2e-4 -34.775444,-62.71401 -47.6875,-55.8125 0.85209,4.37812 1.646684,10.72084 2.09375,18.1875 l 19.71875,21.9375 -19.46875,-16.75 c 0.123836,3.76096 0.149002,7.71752 0.03125,11.8125 L 68.4375,312.25 49.125,303.03125 c -0.194038,4.19628 -0.525921,8.47349 -1.0625,12.78125 l 21.53125,6.875 -21.90625,-4 c -0.463428,3.20341 -1.050741,6.40867 -1.75,9.5625 l 22,2.15625 -22.65625,0.6875 c -0.714866,2.87618 -1.551531,5.68419 -2.5,8.4375 l 23.0625,-2.9375 -24.3125,6.34375 c -2.264206,5.7702 -5.117502,11.15305 -8.6875,15.8125 15.038651,5.137 32.441159,-19.31889 49.059477,-14.43888 1.426578,0.29991 2.424754,1.75254 2.457551,2.40619 1.466009,16.90687 21.943852,32.69108 39.194482,38.13886 17.25063,5.44778 75.94414,15.18636 112.91349,-19.98117 7.49466,-7.27888 10.4842,-14.41015 16.625,-16.25 3.7115,-1.11198 12.37533,23.49932 14.26348,21.02871 2.17071,-2.84041 -2.32863,-13.95314 -1.85723,-23.87246 0.55828,-11.74761 10.31202,-22.49663 8.75682,-23.81171 -5.31078,-4.49079 -15.15412,14.93939 -18.75682,12.99921 -6.6682,-3.5911 -8.98339,-16.94404 -17.75,-29.375 -8.86657,-12.5727 -27.28391,-28.0223 -57.29911,-45.22321 -18.3089,-10.4924 -43.8161,-18.87061 -66.4375,-21.8125 -6.04351,-0.78595 -16.973257,-1.20152 -26.562497,-1.21875 z"
         id="path4480"
         inkscape:connector-curvature="0"
         sodipodi:nodetypes="scsccccccccccsscccccccccccccccccccczcscsssssss" />
      <path
         style="opacity:0.24148147;fill:url(#radialGradient4551);fill-opacity:1;stroke:none"
         d="m 111.75056,293.84945 -2.75559,3.84901 4.11657,2.00763 2.75558,-3.84907 -4.11656,-2.00757 z m 4.11656,2.00757 4.11658,2.00763 2.75051,-3.84766 -4.1115,-2.00897 -2.75559,3.849 z m 6.86709,-1.84003 4.11657,2.00759 2.75558,-3.84901 -4.11657,-2.00758 -2.75558,3.849 z m 6.87215,-1.84142 4.11655,2.00759 2.75559,-3.84901 -4.11655,-2.0076 -2.75559,3.84902 z m 6.87214,-1.84142 4.11152,2.00897 2.75555,-3.84906 -4.11654,-2.00759 -2.75053,3.84768 z m 6.86707,-1.84009 4.11658,2.00764 2.75557,-3.84906 -4.11655,-2.00759 -2.7556,3.84901 z m 6.87215,-1.84142 4.11658,2.00763 2.75559,-3.84902 -4.11658,-2.00763 -2.75559,3.84902 z m 6.87217,-1.84139 4.11654,2.0076 2.75054,-3.84767 -4.1115,-2.00894 -2.75558,3.84901 z m 6.86708,-1.84007 4.11656,2.00763 2.75557,-3.84906 -4.11654,-2.00759 -2.75559,3.84902 z m 6.87213,-1.84143 4.11657,2.00763 2.75559,-3.84901 -4.11657,-2.00763 -2.75559,3.84901 z m 6.87216,-1.84138 4.1115,2.00894 2.75558,-3.84901 -4.11657,-2.00765 -2.75051,3.84772 z m 6.86708,-1.84007 4.11655,2.00759 2.75559,-3.84901 -4.11656,-2.0076 -2.75558,3.84902 z m -75.32783,21.30677 -2.75559,3.84901 4.11658,2.00763 2.75559,-3.84905 -4.11658,-2.00759 z m 4.11658,2.00759 4.11654,2.00762 2.75561,-3.849 -4.11659,-2.00764 -2.75556,3.84902 z m 6.87215,-1.84138 4.11654,2.00758 2.75053,-3.84767 -4.11151,-2.00896 -2.75556,3.84905 z m 6.86707,-1.84009 4.11656,2.00759 2.75559,-3.84901 -4.11657,-2.00758 -2.75558,3.849 z m 6.87215,-1.84142 4.11653,2.00759 2.75562,-3.84898 -4.11657,-2.00763 -2.75558,3.84902 z m 6.87215,-1.84139 4.1115,2.00894 2.75558,-3.84901 -4.11656,-2.00763 -2.75052,3.8477 z m 6.86708,-1.84007 4.11657,2.00758 2.75557,-3.84901 -4.11655,-2.00759 -2.75559,3.84902 z m 6.87214,-1.84143 4.11657,2.00758 2.75558,-3.849 -4.11655,-2.00758 -2.7556,3.849 z m 6.87215,-1.84142 4.11656,2.00758 2.75051,-3.84765 -4.11148,-2.00895 -2.75559,3.84902 z m 6.86707,-1.84007 4.11657,2.00762 2.75558,-3.84905 -4.11656,-2.00759 -2.75559,3.84902 z m 6.87215,-1.84143 4.11657,2.00762 2.75558,-3.84905 -4.11657,-2.00758 -2.75558,3.84901 z m 6.87215,-1.84143 4.1115,2.00898 2.75559,-3.84902 -4.11657,-2.00758 -2.75052,3.84762 z m 6.86709,-1.84004 4.11654,2.00759 2.7556,-3.84901 -4.11656,-2.00759 -2.75558,3.84901 z m -75.30176,21.41891 -2.7556,3.84901 4.11659,2.00763 2.75557,-3.84901 -4.11656,-2.00763 z m 4.11656,2.00763 4.11657,2.00759 2.75052,-3.84766 -4.11152,-2.00899 -2.75557,3.84906 z m 6.86709,-1.84007 4.11655,2.00758 2.75557,-3.84901 -4.11654,-2.0076 -2.75558,3.84903 z m 6.87212,-1.84143 4.11657,2.00759 2.75559,-3.84902 -4.11656,-2.00759 -2.7556,3.84902 z m 6.87216,-1.84143 4.1115,2.00898 2.75559,-3.84905 -4.11656,-2.00759 -2.75053,3.84766 z m 6.86709,-1.84007 4.11657,2.00762 2.75558,-3.849 -4.11655,-2.00759 -2.7556,3.84897 z m 6.87215,-1.84138 4.11655,2.00758 2.75559,-3.84901 -4.11656,-2.0076 -2.75558,3.84903 z m 6.87214,-1.84143 4.11656,2.00757 2.75052,-3.84765 -4.1115,-2.00894 -2.75558,3.84902 z m 6.86708,-1.84008 4.11657,2.00762 2.75557,-3.84904 -4.11654,-2.00759 -2.7556,3.84901 z m 6.87214,-1.84142 4.11657,2.00762 2.75559,-3.849 -4.11658,-2.00763 -2.75558,3.84901 z m 6.87216,-1.84138 4.11149,2.00892 2.75558,-3.849 -4.11658,-2.00763 -2.75049,3.84771 z m 6.86707,-1.84008 4.11656,2.00758 2.75558,-3.84901 -4.11655,-2.00759 -2.75559,3.84902 z m -75.32782,21.30678 -2.75559,3.849 4.11658,2.00763 2.75557,-3.84906 -4.11656,-2.00757 z m 4.11656,2.00757 4.11658,2.00762 2.75557,-3.849 -4.11655,-2.00763 -2.7556,3.84901 z m 6.87215,-1.84138 4.11657,2.00759 2.75053,-3.84767 -4.1115,-2.00893 -2.7556,3.84901 z m 6.8671,-1.84008 4.11656,2.00763 2.75557,-3.84905 -4.11656,-2.00759 -2.75557,3.84901 z m 6.87213,-1.84142 4.11656,2.00758 2.75561,-3.84897 -4.11658,-2.00762 -2.75559,3.84901 z m 6.87217,-1.84139 4.11148,2.00894 2.75559,-3.84902 -4.11658,-2.00762 -2.75049,3.8477 z m 6.86707,-1.84008 4.11656,2.0076 2.75559,-3.84903 -4.11657,-2.00758 -2.75558,3.84901 z m 6.87215,-1.84143 4.11654,2.0076 2.7556,-3.84901 -4.11656,-2.00759 -2.75558,3.849 z m 6.87214,-1.84141 4.11656,2.00758 2.75051,-3.84766 -4.11149,-2.00894 -2.75558,3.84902 z m 6.86707,-1.84008 4.11658,2.00763 2.75556,-3.84905 -4.11654,-2.00755 -2.7556,3.84897 z m 6.87214,-1.84142 4.11659,2.00763 2.75556,-3.84906 -4.11653,-2.00756 -2.75562,3.84899 z m 6.87215,-1.84143 4.11151,2.00898 2.75557,-3.84901 -4.11654,-2.00759 -2.75054,3.84762 z m 6.86708,-1.84003 4.11658,2.00762 2.75556,-3.84906 -4.11654,-2.00758 -2.7556,3.84902 z m -75.31978,21.34131 -2.75561,3.84897 4.11659,2.00763 2.75558,-3.84903 -4.11656,-2.00757 z m 4.11656,2.00757 4.11655,2.0076 2.75054,-3.84767 -4.11151,-2.00893 -2.75558,3.849 z m 6.86709,-1.84007 4.11657,2.00762 2.75556,-3.84905 -4.11656,-2.00757 -2.75557,3.849 z m 6.87213,-1.84143 4.11657,2.00764 2.7556,-3.84902 -4.11659,-2.00761 -2.75558,3.84899 z m 6.87217,-1.84138 4.11148,2.00894 2.75559,-3.84901 -4.11658,-2.00763 -2.75049,3.8477 z m 6.86707,-1.84007 4.11655,2.00759 2.7556,-3.84902 -4.11657,-2.00762 -2.75558,3.84905 z m 6.87215,-1.84143 4.11655,2.00759 2.75558,-3.84902 -4.11654,-2.00759 -2.75559,3.84902 z m 6.87213,-1.84143 4.11658,2.00763 2.75051,-3.84766 -4.11149,-2.00898 -2.7556,3.84901 z m 6.86709,-1.84003 4.11657,2.0076 2.75556,-3.84906 -4.11655,-2.00759 -2.75558,3.84905 z m 6.87213,-1.84146 4.11658,2.00763 2.75557,-3.84906 -4.11654,-2.00756 -2.75561,3.84899 z m 6.87215,-1.84143 4.11151,2.00898 2.75558,-3.84902 -4.11655,-2.00759 -2.75054,3.84763 z m 6.86709,-1.84004 4.11657,2.00764 2.75558,-3.84906 -4.11656,-2.00758 -2.75559,3.849 z m -75.32782,21.30678 -2.75556,3.84904 4.11654,2.0076 2.75559,-3.84901 -4.11657,-2.00763 z m 4.11657,2.00763 4.11655,2.00759 2.7556,-3.84902 -4.11657,-2.00758 -2.75558,3.84901 z m 6.87215,-1.84143 4.11655,2.00759 2.75053,-3.84767 -4.1115,-2.00894 -2.75558,3.84902 z m 6.86708,-1.84008 4.11658,2.00763 2.75555,-3.84904 -4.11655,-2.00759 -2.75558,3.849 z m 6.87213,-1.84141 4.11658,2.00761 2.75559,-3.84901 -4.11656,-2.00759 -2.75561,3.84899 z m 6.87217,-1.8414 4.1115,2.00895 2.75558,-3.84902 -4.11656,-2.0076 -2.75052,3.84767 z m 6.86708,-1.84007 4.11657,2.00762 2.75557,-3.84905 -4.11657,-2.00759 -2.75557,3.84902 z m 6.87214,-1.84143 4.11657,2.00763 2.75557,-3.84905 -4.11654,-2.00759 -2.7556,3.84901 z m 6.87214,-1.84142 4.11657,2.00762 2.75052,-3.84765 -4.1115,-2.00899 -2.75559,3.84902 z m 6.86709,-1.84003 4.11656,2.00758 2.75558,-3.84901 -4.11656,-2.00764 -2.75558,3.84907 z m 6.87214,-1.84143 4.11656,2.00758 2.75558,-3.84901 -4.11654,-2.00759 -2.7556,3.84902 z m 6.87214,-1.84143 4.11152,2.00897 2.75557,-3.84905 -4.11656,-2.00759 -2.75053,3.84767 z m 6.86709,-1.84008 4.11657,2.00763 2.75558,-3.84905 -4.11657,-2.00759 -2.75558,3.84901 z m -75.30174,21.41894 -2.7556,3.84902 4.11655,2.00759 2.75561,-3.84896 -4.11656,-2.00765 z m 4.11656,2.00765 4.11655,2.00753 2.75052,-3.84761 -4.11149,-2.00899 -2.75558,3.84907 z m 6.86707,-1.84008 4.11657,2.00758 2.75557,-3.84901 -4.11655,-2.00764 -2.75559,3.84907 z m 6.87214,-1.84143 4.11658,2.00759 2.75557,-3.84902 -4.11656,-2.00762 -2.75559,3.84905 z m 6.87215,-1.84143 4.1115,2.00893 2.75559,-3.849 -4.11657,-2.00763 -2.75052,3.8477 z m 6.86709,-1.84007 4.11656,2.00762 2.75558,-3.84905 -4.11656,-2.00758 -2.75558,3.84901 z m 6.87214,-1.84143 4.11657,2.00763 2.75557,-3.84906 -4.11656,-2.00759 -2.75558,3.84902 z m 6.87214,-1.84143 4.11656,2.00764 2.75054,-3.84767 -4.11152,-2.00898 -2.75558,3.84901 z m 6.8671,-1.84003 4.11655,2.00758 2.75559,-3.849 -4.11658,-2.00764 -2.75556,3.84906 z m 6.87214,-1.84142 4.11655,2.00758 2.75559,-3.84901 -4.11656,-2.00758 -2.75558,3.84901 z m 6.87214,-1.84143 4.1115,2.00893 2.75558,-3.849 -4.11655,-2.00759 -2.75053,3.84766 z m 6.86708,-1.84007 4.11658,2.00762 2.75558,-3.84901 -4.11657,-2.00764 -2.75559,3.84903 z m -75.32783,21.30676 -2.75556,3.84906 4.11656,2.00759 2.75558,-3.84902 -4.11658,-2.00763 z m 4.11658,2.00763 4.11656,2.00759 2.75558,-3.849 -4.11656,-2.00759 -2.75558,3.849 z m 6.87214,-1.84141 4.11658,2.00762 2.75051,-3.84766 -4.1115,-2.00898 -2.75559,3.84902 z m 6.86709,-1.84004 4.11656,2.00759 2.75559,-3.84902 -4.11657,-2.00763 -2.75558,3.84906 z m 6.87215,-1.84143 4.11656,2.00758 2.75558,-3.84901 -4.11656,-2.00759 -2.75558,3.84902 z m 6.87214,-1.84143 4.11149,2.00894 2.75561,-3.84898 -4.11657,-2.00763 -2.75053,3.84767 z m 6.8671,-1.84004 4.11655,2.00758 2.75558,-3.84904 -4.11656,-2.00759 -2.75557,3.84905 z m 6.87213,-1.84146 4.11657,2.00763 2.75558,-3.84905 -4.11657,-2.00758 -2.75558,3.849 z m 6.87215,-1.84142 4.11655,2.00763 2.75054,-3.84767 -4.11152,-2.00898 -2.75557,3.84902 z m 6.86709,-1.84004 4.11656,2.00762 2.75557,-3.84904 -4.11655,-2.0076 -2.75558,3.84902 z m 6.87213,-1.84142 4.11656,2.00762 2.75559,-3.84906 -4.11657,-2.00757 -2.75558,3.84901 z m 6.87215,-1.84144 4.11151,2.00898 2.75558,-3.84901 -4.11658,-2.00762 -2.75051,3.84765 z m 6.86709,-1.84003 4.11656,2.00759 2.75558,-3.84901 -4.11657,-2.00763 -2.75557,3.84905 z"
         id="path4490"
         inkscape:connector-curvature="0"
         mask="none"
         clip-path="url(#clipPath4505)" />
    </g>
    <text
       xml:space="preserve"
       style="font-size:15.06666279px;font-style:normal;font-variant:normal;font-weight:normal;font-stretch:normal;line-height:125%;letter-spacing:0px;word-spacing:0px;fill:#000000;fill-opacity:1;stroke:none;font-family:Sanchez;-inkscape-font-specification:Sanchez"
       x="243.6441"
       y="371.87503"
       id="text4607"
       sodipodi:linespacing="125%"><tspan
         sodipodi:role="line"
         id="tspan4609"
         x="243.6441"
         y="371.87503">A</tspan></text>
    <text
       sodipodi:linespacing="125%"
       id="text4611"
       y="327.53195"
       x="227.46527"
       style="font-size:46.51718521px;font-style:normal;font-variant:normal;font-weight:normal;font-stretch:normal;line-height:125%;letter-spacing:0px;word-spacing:0px;fill:#000000;fill-opacity:1;stroke:none;font-family:Sanchez;-inkscape-font-specification:Sanchez"
       xml:space="preserve"><tspan
         y="327.53195"
         x="227.46527"
         id="tspan4613"
         sodipodi:role="line">ɶ</tspan></text>
    <text
       xml:space="preserve"
       style="font-size:11.88270378px;font-style:normal;font-variant:normal;font-weight:normal;font-stretch:normal;line-height:125%;letter-spacing:0px;word-spacing:0px;fill:#000000;fill-opacity:1;stroke:none;font-family:Sanchez;-inkscape-font-specification:Sanchez"
       x="226.39734"
       y="404.76794"
       id="text4615"
       sodipodi:linespacing="125%"><tspan
         sodipodi:role="line"
         id="tspan4617"
         x="226.39734"
         y="404.76794">ɳ</tspan></text>
    <text
       xml:space="preserve"
       style="font-size:49.24688339px;font-style:normal;font-variant:normal;font-weight:normal;font-stretch:normal;line-height:125%;letter-spacing:0px;word-spacing:0px;fill:#000000;fill-opacity:1;stroke:none;font-family:Sanchez;-inkscape-font-specification:Sanchez"
       x="180.20418"
       y="285.03342"
       id="text4623"
       sodipodi:linespacing="125%"><tspan
         sodipodi:role="line"
         id="tspan4625"
         x="180.20418"
         y="285.03342">ȶ</tspan></text>
    <path
       sodipodi:type="arc"
       style="opacity:0.69444442;fill:url(#radialGradient4571);fill-opacity:1;stroke:url(#radialGradient4573);stroke-width:1.6763612;stroke-linecap:round;stroke-linejoin:round;stroke-miterlimit:4;stroke-opacity:1;stroke-dasharray:none"
       id="path4553"
       sodipodi:cx="-212.14285"
       sodipodi:cy="369.50504"
       sodipodi:rx="48.57143"
       sodipodi:ry="48.57143"
       d="m -163.57142,369.50504 a 48.57143,48.57143 0 1 1 -97.14286,0 48.57143,48.57143 0 1 1 97.14286,0 z"
       transform="matrix(0.22427754,0,0,0.22427754,277.82128,318.86453)" />
    <path
       sodipodi:type="arc"
       style="opacity:0.69444442;fill:url(#radialGradient4583);fill-opacity:1;stroke:url(#radialGradient4585);stroke-width:1.6763612;stroke-linecap:round;stroke-linejoin:round;stroke-miterlimit:4;stroke-opacity:1;stroke-dasharray:none"
       id="path4581"
       sodipodi:cx="-212.14285"
       sodipodi:cy="369.50504"
       sodipodi:rx="48.57143"
       sodipodi:ry="48.57143"
       d="m -163.57142,369.50504 a 48.57143,48.57143 0 1 1 -97.14286,0 48.57143,48.57143 0 1 1 97.14286,0 z"
       transform="matrix(0.28210319,0,0,0.28210319,309.38481,262.3323)" />
    <path
       transform="matrix(0.59653016,0,0,0.59653016,374.65367,93.435486)"
       d="m -163.57142,369.50504 a 48.57143,48.57143 0 1 1 -97.14286,0 48.57143,48.57143 0 1 1 97.14286,0 z"
       sodipodi:ry="48.57143"
       sodipodi:rx="48.57143"
       sodipodi:cy="369.50504"
       sodipodi:cx="-212.14285"
       id="path4575"
       style="opacity:0.69444442;fill:url(#radialGradient4577);fill-opacity:1;stroke:url(#radialGradient4579);stroke-width:1.6763612;stroke-linecap:round;stroke-linejoin:round;stroke-miterlimit:4;stroke-opacity:1;stroke-dasharray:none"
       sodipodi:type="arc" />
    <path
       transform="matrix(0.70495325,0,0,0.70495325,340.50839,8.6974633)"
       d="m -163.57142,369.50504 a 48.57143,48.57143 0 1 1 -97.14286,0 48.57143,48.57143 0 1 1 97.14286,0 z"
       sodipodi:ry="48.57143"
       sodipodi:rx="48.57143"
       sodipodi:cy="369.50504"
       sodipodi:cx="-212.14285"
       id="path4587"
       style="opacity:0.69444442;fill:url(#radialGradient4589);fill-opacity:1;stroke:url(#radialGradient4591);stroke-width:1.6763612;stroke-linecap:round;stroke-linejoin:round;stroke-miterlimit:4;stroke-opacity:1;stroke-dasharray:none"
       sodipodi:type="arc" />
    <g
       id="g4628"
       mask="none"
       transform="translate(-23.571429,37.142857)"
       clip-path="url(#clipPath4701)"
       style="opacity:0.69444442">
      <text
         xml:space="preserve"
         style="font-size:63.21243668px;font-style:normal;font-variant:normal;font-weight:normal;font-stretch:normal;line-height:125%;letter-spacing:0px;word-spacing:0px;fill:#000000;fill-opacity:1;stroke:none;font-family:Sanchez;-inkscape-font-specification:Sanchez"
         x="259.2012"
         y="221.62248"
         id="text4619"
         sodipodi:linespacing="125%"><tspan
           sodipodi:role="line"
           id="tspan4621"
           x="259.2012"
           y="221.62248">ɚ</tspan></text>
      <path
         clip-path="none"
         transform="matrix(0.80614814,0,0,0.80614814,459.46821,-102.02524)"
         d="m -163.57142,369.50504 c 0,26.82526 -21.74617,48.57143 -48.57143,48.57143 -26.82526,0 -48.57143,-21.74617 -48.57143,-48.57143 0,-26.82526 21.74617,-48.57143 48.57143,-48.57143 26.82526,0 48.57143,21.74617 48.57143,48.57143 z"
         sodipodi:ry="48.57143"
         sodipodi:rx="48.57143"
         sodipodi:cy="369.50504"
         sodipodi:cx="-212.14285"
         id="path4593"
         style="fill:url(#radialGradient4595);fill-opacity:1;stroke:url(#radialGradient4597);stroke-width:1.6763612;stroke-linecap:round;stroke-linejoin:round;stroke-miterlimit:4;stroke-opacity:1;stroke-dasharray:none"
         sodipodi:type="arc" />
    </g>
  </g>
</svg>
